<svg id="미니쉬_스파" data-name="미니쉬 스파" xmlns="http://www.w3.org/2000/svg" xmlns:xlink="http://www.w3.org/1999/xlink" width="50" height="50" viewBox="0 0 50 50">
  <defs>
    <clipPath id="clip-path">
      <rect id="사각형_143" data-name="사각형 143" width="36.305" height="9.804" fill="none" stroke="#000" stroke-width="1"/>
    </clipPath>
  </defs>
  <rect id="사각형_140" data-name="사각형 140" width="50" height="50" fill="#ff5f5f" opacity="0"/>
  <g id="그룹_268" data-name="그룹 268" transform="translate(7 10)">
    <g id="그룹_267" data-name="그룹 267">
      <g id="ic-medical-tooth-2" transform="translate(6.519)">
        <path id="패스_65" data-name="패스 65" d="M732.658,471.975c3.175.089,3.871-1.615,6.62-.979,8.41,2.25,4.107,12.717,2.237,18.291-.3,1.019-3.511,11.8-6.308,6.7-.894-4.553-.591-6.548-2.258-8.869h-.584c-1.667,2.321-1.364,4.316-2.258,8.869-2.8,5.109-6-5.7-6.308-6.7-1.877-5.564-6.176-16.057,2.235-18.292,2.745-.636,3.444,1.068,6.62.979" transform="translate(-721.02 -470.854)" fill="rgba(0,0,0,0)" stroke="#000" stroke-linecap="square" stroke-linejoin="round" stroke-width="1"/>
        <path id="패스_66" data-name="패스 66" d="M725.1,479.034h0a5.12,5.12,0,0,1,4.083-3.561" transform="translate(-721.922 -471.876)" fill="rgba(0,0,0,0)" stroke="#000" stroke-linecap="square" stroke-linejoin="round" stroke-width="1"/>
      </g>
      <g id="그룹_263" data-name="그룹 263" transform="translate(0 21.599)">
        <g id="그룹_262" data-name="그룹 262" clip-path="url(#clip-path)">
          <path id="패스_159" data-name="패스 159" d="M31.655.738c2.559.9,4.1,2.063,4.1,3.331,0,2.859-7.829,5.178-17.486,5.178S.783,6.928.783,4.069C.783,2.884,2.127,1.792,4.389.92" transform="translate(-0.116 -0.109)" fill="none" stroke="#000" stroke-width="1"/>
        </g>
      </g>
    </g>
  </g>
</svg>
