<svg id="그룹_615" data-name="그룹 615" xmlns="http://www.w3.org/2000/svg" width="30" height="30" viewBox="0 0 30 30">
  <rect id="사각형_130" data-name="사각형 130" width="30" height="30" fill="none" opacity="0.19"/>
  <g id="그룹_265" data-name="그룹 265" transform="translate(1.73 9)">
    <g id="그룹_253" data-name="그룹 253">
      <g id="그룹_251" data-name="그룹 251" transform="translate(1.592)">
        <g id="타원_38" data-name="타원 38" fill="none" stroke="#fff" stroke-width="1">
          <circle cx="5.508" cy="5.508" r="5.508" stroke="none"/>
          <circle cx="5.508" cy="5.508" r="5.008" fill="none"/>
        </g>
        <g id="타원_39" data-name="타원 39" transform="translate(12.454)" fill="none" stroke="#fff" stroke-width="1">
          <circle cx="5.508" cy="5.508" r="5.508" stroke="none"/>
          <circle cx="5.508" cy="5.508" r="5.008" fill="none"/>
        </g>
      </g>
      <path id="패스_132" data-name="패스 132" d="M8204.128,1070.5h2.071" transform="translate(-8204.128 -1064.992)" fill="none" stroke="#fff" stroke-width="1"/>
      <path id="패스_139" data-name="패스 139" d="M8204.128,1070.5h2.071" transform="translate(-8179.544 -1064.992)" fill="none" stroke="#fff" stroke-width="1"/>
      <g id="그룹_252" data-name="그룹 252" transform="translate(12.343 5.323)">
        <path id="패스_135" data-name="패스 135" d="M8227.146,1055.761s.076-.38.984-.371" transform="translate(-8227.146 -1055.39)" fill="none" stroke="#fff" stroke-linecap="square" stroke-width="1"/>
        <path id="패스_136" data-name="패스 136" d="M8228.13,1055.761s-.075-.38-.984-.371" transform="translate(-8226.161 -1055.39)" fill="none" stroke="#fff" stroke-linecap="square" stroke-width="1"/>
      </g>
      <path id="패스_137" data-name="패스 137" d="M8212.617,1064.529a3.172,3.172,0,0,1,2.008-1.569" transform="translate(-8208.814 -1061.063)" fill="none" stroke="#fff" stroke-width="1"/>
      <path id="패스_138" data-name="패스 138" d="M8212.617,1064.529a3.172,3.172,0,0,1,2.008-1.569" transform="translate(-8196.36 -1061.063)" fill="none" stroke="#fff" stroke-width="1"/>
    </g>
  </g>
</svg>
