<svg xmlns="http://www.w3.org/2000/svg" width="22.446" height="24.049" viewBox="0 0 22.446 24.049">
  <g id="합치기_5" data-name="합치기 5" transform="translate(-9838.932 6832.852) rotate(-40)" fill="#fff">
    <path d="M 11930.0009765625 1117.501342773438 C 11927.5185546875 1117.501342773438 11925.4990234375 1115.481689453125 11925.4990234375 1112.999145507812 C 11925.4990234375 1112.016357421875 11925.810546875 1111.082885742188 11926.3984375 1110.299682617188 L 11926.4990234375 1110.166137695312 L 11926.4990234375 1109.999267578125 L 11926.4990234375 1102.999389648438 L 11926.4990234375 1102.832397460938 L 11926.3984375 1102.698974609375 C 11925.810546875 1101.915893554688 11925.4990234375 1100.982421875 11925.4990234375 1099.999633789062 C 11925.4990234375 1097.518798828125 11927.5185546875 1095.50048828125 11930.0009765625 1095.50048828125 C 11932.4814453125 1095.50048828125 11934.5 1097.518798828125 11934.5 1099.999633789062 C 11934.5 1102.131103515625 11932.986328125 1103.985473632812 11930.9013671875 1104.40869140625 L 11930.5009765625 1104.489990234375 L 11930.5009765625 1104.898681640625 L 11930.5009765625 1108.10009765625 L 11930.5009765625 1108.5087890625 L 11930.9013671875 1108.590087890625 C 11932.986328125 1109.013305664062 11934.5 1110.86767578125 11934.5 1112.999145507812 C 11934.5 1115.481689453125 11932.4814453125 1117.501342773438 11930.0009765625 1117.501342773438 Z" stroke="none"/>
    <path d="M 11930.0009765625 1117.001342773438 C 11932.2060546875 1117.001342773438 11934 1115.205932617188 11934 1112.999145507812 C 11934 1111.1044921875 11932.6552734375 1109.456298828125 11930.8017578125 1109.080078125 L 11930.0009765625 1108.91748046875 L 11930.0009765625 1104.081298828125 L 11930.8017578125 1103.918701171875 C 11932.6552734375 1103.54248046875 11934 1101.894287109375 11934 1099.999633789062 C 11934 1097.794555664062 11932.2060546875 1096.00048828125 11930.0009765625 1096.00048828125 C 11927.7939453125 1096.00048828125 11925.9990234375 1097.794555664062 11925.9990234375 1099.999633789062 C 11925.9990234375 1100.873291015625 11926.275390625 1101.702758789062 11926.798828125 1102.398559570312 L 11926.9990234375 1102.66552734375 L 11926.9990234375 1110.333129882812 L 11926.798828125 1110.599975585938 C 11926.275390625 1111.2958984375 11925.9990234375 1112.125610351562 11925.9990234375 1112.999145507812 C 11925.9990234375 1115.205932617188 11927.7939453125 1117.001342773438 11930.0009765625 1117.001342773438 M 11930.0009765625 1118.001342773438 C 11927.2392578125 1118.001342773438 11924.9990234375 1115.760864257812 11924.9990234375 1112.999145507812 C 11924.9990234375 1111.873413085938 11925.37109375 1110.834838867188 11925.9990234375 1109.999267578125 L 11925.9990234375 1102.999389648438 C 11925.37109375 1102.163940429688 11924.9990234375 1101.125366210938 11924.9990234375 1099.999633789062 C 11924.9990234375 1097.237915039062 11927.2392578125 1095.00048828125 11930.0009765625 1095.00048828125 C 11932.7626953125 1095.00048828125 11935 1097.237915039062 11935 1099.999633789062 C 11935 1102.418579101562 11933.283203125 1104.435424804688 11931.0009765625 1104.898681640625 L 11931.0009765625 1108.10009765625 C 11933.283203125 1108.563354492188 11935 1110.580200195312 11935 1112.999145507812 C 11935 1115.760864257812 11932.7626953125 1118.001342773438 11930.0009765625 1118.001342773438 Z" stroke="none" fill="#707070"/>
  </g>
</svg>
