<svg id="스파" xmlns="http://www.w3.org/2000/svg" width="50" height="50" viewBox="0 0 50 50">
  <rect id="사각형_138" data-name="사각형 138" width="50" height="50" fill="none" opacity="0.19"/>
  <g id="그룹_266" data-name="그룹 266" transform="translate(5 8)">
    <path id="패스_143" data-name="패스 143" d="M38.1,27.266c-5.394,2.853-12.261.452-12.261.452s1.881-7.026,7.275-9.879,12.261-.453,12.261-.453-1.881,7.027-7.275,9.88" transform="translate(-4.695 -3.265)" fill="#fff" stroke="#000" stroke-width="1"/>
    <path id="패스_145" data-name="패스 145" d="M12.757,17.306C18.019,20.4,19.585,27.5,19.585,27.5s-6.967,2.093-12.229-1S.529,16.309.529,16.309s6.966-2.093,12.228,1" transform="translate(-0.529 -3.129)" fill="#fff" stroke="#000" stroke-width="1"/>
    <path id="패스_147" data-name="패스 147" d="M20.707,12.781c3.1,5.558.756,12.772.756,12.772s-7.368-1.8-10.469-7.355-.756-12.772-.756-12.772,7.369,1.8,10.469,7.355" transform="translate(-1.987 -1.452)" fill="#fff" stroke="#000" stroke-width="1"/>
    <path id="패스_149" data-name="패스 149" d="M36.02,18.833c-3.344,5.414-10.785,6.881-10.785,6.881s-2.02-7.311,1.323-12.725S37.344,6.108,37.344,6.108s2.02,7.311-1.324,12.725" transform="translate(-4.495 -1.564)" fill="#fff" stroke="#000" stroke-width="1"/>
    <path id="패스_151" data-name="패스 151" d="M29.361,12.868c-.149,6.668-5.828,11.951-5.828,11.951s-5.439-5.53-5.29-12.2S24.071.669,24.071.669s5.439,5.53,5.29,12.2" transform="translate(-3.444 -0.669)" fill="#fff" stroke="#000" stroke-width="1"/>
    <path id="패스_153" data-name="패스 153" d="M37.579,30.511c1.236.716,1.932,1.525,1.932,2.383,0,2.921-8.083,5.288-18.056,5.288S3.4,35.815,3.4,32.894c0-.805.613-1.568,1.712-2.251" transform="translate(-1.117 -5.114)" fill="none" stroke="#000" stroke-width="1"/>
  </g>
</svg>
