<svg id="그룹_618" data-name="그룹 618" xmlns="http://www.w3.org/2000/svg" width="30" height="30" viewBox="0 0 30 30">
  <g id="그룹_617" data-name="그룹 617">
    <rect id="사각형_139" data-name="사각형 139" width="30" height="30" fill="none" opacity="0.191"/>
    <g id="그룹_269" data-name="그룹 269" transform="translate(5.193 3.826)">
      <path id="패스_156" data-name="패스 156" d="M14.6,17.432l2.213-2.212a4.34,4.34,0,0,0,1.2-.448,3.766,3.766,0,0,0,1.022-.765c.434-.391,6-7.116,6.391-8.609s-.461-4.351-.461-4.351l-9.994,12.2-1.959,2.392" transform="translate(-6.452 -1.047)" fill="none" stroke="#fff" stroke-width="1"/>
      <circle id="타원_44" data-name="타원 44" cx="2.097" cy="2.097" r="2.097" transform="translate(2.098 16.057)" fill="none" stroke="#fff" stroke-width="1"/>
      <circle id="타원_45" data-name="타원 45" cx="4.194" cy="4.194" r="4.194" transform="translate(0.001 13.96)" fill="none" stroke="#fff" stroke-width="1"/>
      <line id="선_25" data-name="선 25" x2="0.835" y2="1.02" transform="translate(11.68 13.577)" fill="none" stroke="#fff" stroke-width="1"/>
      <path id="패스_157" data-name="패스 157" d="M8.015,14.773a3.766,3.766,0,0,1-1.022-.765C6.559,13.617.988,6.895.6,5.4s.461-4.351.461-4.351l8.975,10.959" transform="translate(-0.5 -1.047)" fill="none" stroke="#fff" stroke-width="1"/>
      <line id="선_26" data-name="선 26" x1="1.445" y1="1.444" transform="translate(9.483 14.941)" fill="none" stroke="#fff" stroke-width="1"/>
      <circle id="타원_46" data-name="타원 46" cx="2.097" cy="2.097" r="2.097" transform="translate(12.784 16.057)" fill="none" stroke="#fff" stroke-width="1"/>
      <circle id="타원_47" data-name="타원 47" cx="4.194" cy="4.194" r="4.194" transform="translate(10.686 13.96)" fill="none" stroke="#fff" stroke-width="1"/>
    </g>
  </g>
</svg>
