<svg id="그룹_608" data-name="그룹 608" xmlns="http://www.w3.org/2000/svg" width="30" height="30" viewBox="0 0 30 30">
  <rect id="사각형_138" data-name="사각형 138" width="30" height="30" fill="none" opacity="0.19"/>
  <g id="그룹_607" data-name="그룹 607" transform="translate(2.007 5.657)">
    <path id="패스_143" data-name="패스 143" d="M33.507,23.212c-3.374,1.785-7.669.283-7.669.283s1.176-4.395,4.551-6.18,7.669-.283,7.669-.283-1.176,4.4-4.551,6.18" transform="translate(-12.612 -9.199)" fill="#514d45" stroke="#fff" stroke-width="1"/>
    <path id="패스_145" data-name="패스 145" d="M8.178,16.673c3.292,1.933,4.271,6.377,4.271,6.377s-4.358,1.309-7.65-.624S.529,16.049.529,16.049s4.357-1.309,7.649.624" transform="translate(-0.529 -8.805)" fill="#514d45" stroke="#fff" stroke-width="1"/>
    <path id="패스_147" data-name="패스 147" d="M16.469,10.027c1.939,3.477.473,7.989.473,7.989s-4.609-1.124-6.548-4.6-.473-7.989-.473-7.989,4.61,1.124,6.548,4.6" transform="translate(-4.759 -3.94)" fill="#514d45" stroke="#fff" stroke-width="1"/>
    <path id="패스_149" data-name="패스 149" d="M31.755,14.068c-2.092,3.387-6.747,4.3-6.747,4.3s-1.264-4.573.828-7.96,6.747-4.3,6.747-4.3,1.264,4.573-.828,7.96" transform="translate(-12.71 -3.695)" fill="#514d45" stroke="#fff" stroke-width="1"/>
    <path id="패스_151" data-name="패스 151" d="M25.2,8.3c-.093,4.171-3.646,7.476-3.646,7.476s-3.4-3.459-3.309-7.63S21.888.669,21.888.669,25.29,4.128,25.2,8.3" transform="translate(-8.984 -0.669)" fill="#514d45" stroke="#fff" stroke-width="1"/>
    <path id="패스_153" data-name="패스 153" d="M24.78,30.511c.773.448,1.209.954,1.209,1.491,0,1.827-5.056,3.308-11.295,3.308S3.4,33.829,3.4,32c0-.5.384-.981,1.071-1.408" transform="translate(-1.972 -15.624)" fill="none" stroke="#fff" stroke-width="1"/>
  </g>
</svg>
