<svg xmlns="http://www.w3.org/2000/svg" width="19.5" height="21.336" viewBox="0 0 19.5 21.336">
  <g id="그룹_26" data-name="그룹 26" transform="translate(-113.25 -818.25)">
    <path id="Rectangle-4" d="M2,0H16a1.914,1.914,0,0,1,2,1.815V14.521a1.914,1.914,0,0,1-2,1.815H2a1.914,1.914,0,0,1-2-1.815V1.815A1.914,1.914,0,0,1,2,0Z" transform="translate(114 822.5)" fill="none" stroke="#fff" stroke-linecap="square" stroke-width="1.5"/>
    <path id="Rectangle-4-2" data-name="Rectangle-4" d="M2,0H16a2,2,0,0,1,2,2V5.387a0,0,0,0,1,0,0H0a0,0,0,0,1,0,0V2A2,2,0,0,1,2,0Z" transform="translate(114 822.5)" fill="#fff" stroke="#fff" stroke-linecap="square" stroke-width="1.5"/>
    <path id="Path-8" d="M389.895,889.7v4" transform="translate(-262.895 -69.695)" fill="none" stroke="#9d9274" stroke-linecap="square" stroke-linejoin="round" stroke-width="3"/>
    <path id="Path-9" d="M381.895,889.7v4" transform="translate(-262.895 -69.695)" fill="none" stroke="#9d9274" stroke-linecap="square" stroke-linejoin="round" stroke-width="3"/>
    <path id="Path-8-2" data-name="Path-8" d="M389.895,889.7v4" transform="translate(-262.895 -70.695)" fill="none" stroke="#fff" stroke-linecap="square" stroke-linejoin="round" stroke-width="1.5"/>
    <path id="Path-9-2" data-name="Path-9" d="M381.895,889.7v4" transform="translate(-262.895 -70.695)" fill="none" stroke="#fff" stroke-linecap="square" stroke-linejoin="round" stroke-width="1.5"/>
  </g>
</svg>
