<svg xmlns="http://www.w3.org/2000/svg" xmlns:xlink="http://www.w3.org/1999/xlink" width="28.524" height="26.735" viewBox="0 0 28.524 26.735">
  <defs>
    <clipPath id="clip-path">
      <rect id="사각형_225" data-name="사각형 225" width="28.524" height="26.735" fill="none"/>
    </clipPath>
  </defs>
  <g id="그룹_507" data-name="그룹 507" transform="translate(2 1)" opacity="0.5">
    <g id="그룹_456" data-name="그룹 456" transform="translate(-2 -1)" clip-path="url(#clip-path)">
      <path id="패스_182" data-name="패스 182" d="M0,12.225v-.479A10.087,10.087,0,0,0,.12,9.323c0-.546,0-1.091.005-1.637.51-1.078,1.1-1.288,2.285-.755.939.423,1.786,1.023,2.751,1.41.748.3.994.131.985-.67-.024-2.023-.029-4.047.006-6.071C6.166.812,6.341.168,7.3.123c.37,0,.743,0,1.113,0C10.8-.067,12.162,1.531,13.525,3.1c.824.944.829.993,1.61.048A7.575,7.575,0,0,1,20.853,0h.959a1.792,1.792,0,0,1,.567,1.618c.02,1.873-.016,3.747.017,5.619.024,1.308.43,1.559,1.645,1.036.805-.348,1.559-.8,2.342-1.192.619-.309,1.318-.714,1.942.052.224.643-.094,1.34.2,1.976v2.637a16.113,16.113,0,0,0-.341,3.3,14.8,14.8,0,0,1-3.219,7.728,1.72,1.72,0,0,1-1.316.726,1.2,1.2,0,0,1-1.267-.478,1.164,1.164,0,0,1,.14-1.342,20.6,20.6,0,0,0,3.226-9.545c.2-1.723-.112-1.979-1.687-1.366-1.671.65-1.871,1.007-1.632,3.171a23.417,23.417,0,0,1-.267,5.828c-.548,3.9-2.959,7.166-8.321,6.959h-1.75A11.5,11.5,0,0,1,.327,15.869,29.1,29.1,0,0,0,0,12.225" transform="translate(0 0)" fill="#fff" fill-rule="evenodd"/>
      <path id="패스_183" data-name="패스 183" d="M2.013,8.745c1.441.494,2.668.965,3.926,1.325.64.184.644.587.658,1.083a20.425,20.425,0,0,0,.687,5.324,8.656,8.656,0,0,0,2.516,4,1.357,1.357,0,0,0,1.532.32c.651-.253.951-.535.256-1.155-2.486-2.222-2.9-5.2-2.93-8.3-.005-.6.329-.614.781-.56a34.465,34.465,0,0,0,9.663-.088c.5-.082.647.136.64.579-.042,2.71.212,5.438-.3,8.123-.83,4.355-3.867,6.27-8.181,5.193a10.834,10.834,0,0,1-8.045-7.152,25.377,25.377,0,0,1-1.2-8.69" transform="translate(0.154 0.671)" fill-rule="evenodd"/>
      <path id="패스_184" data-name="패스 184" d="M8.146,1.74a10.871,10.871,0,0,1,4.167,5.448c.209.537.1,1.374,1.054,1.348.94-.025,1.239-.666,1.5-1.438a9.388,9.388,0,0,1,3.4-4.8c.247-.178.522-.494.837-.338.333.165.169.573.17.87.014,2.075-.019,4.148.022,6.221a.911.911,0,0,1-.936,1.085,32.637,32.637,0,0,1-9.178-.022C8.432,10,8.1,9.719,8.123,8.886c.062-2.3.023-4.606.023-7.146" transform="translate(0.623 0.134)" fill-rule="evenodd"/>
    </g>
  </g>
</svg>
